<?xml version="1.0" encoding="utf-8"?>
<!-- Generator: Adobe Illustrator 23.0.1, SVG Export Plug-In . SVG Version: 6.00 Build 0)  -->
<svg version="1.1" id="Capa_1" xmlns="http://www.w3.org/2000/svg" xmlns:xlink="http://www.w3.org/1999/xlink" x="0px" y="0px"
	 viewBox="0 0 60 60" style="enable-background:new 0 0 60 60;" xml:space="preserve">
<style type="text/css">
	.st0{fill:#FFFFFF;}
</style>
<g id="XMLID_1_">
	<g>
		<path class="st0" d="M52.5,11v49h-40c-2.8,0-5-2.3-5-5V6h0C7.4,4.5,7.9,3,8.9,1.8C10,0.7,11.4,0,13,0h39.5v9V11z M50.5,58V11h-19
			v25.2c0,0.7-0.4,1.3-1.1,1.4c0,0-0.1,0-0.1,0c-0.6,0.1-1.2-0.1-1.6-0.7l-4.2-7l-4.2,7c-0.1,0.1-0.2,0.2-0.3,0.3c0,0-0.1,0-0.1,0.1
			c-0.1,0.1-0.2,0.1-0.3,0.2c0,0-0.1,0-0.1,0c-0.1,0-0.2,0.1-0.3,0.1c0,0-0.1,0-0.1,0c0,0,0,0,0,0c-0.1,0-0.3,0-0.4,0
			c-0.7-0.2-1.1-0.8-1.1-1.5V11h-3v47H50.5z M50.5,9V8h-4c-0.5,0-1-0.4-1-1s0.5-1,1-1h4V5h-5c-0.5,0-1-0.4-1-1s0.5-1,1-1h5V2H13
			c-1,0-1.9,0.4-2.6,1.2c-0.7,0.7-1,1.7-0.9,2.7C9.7,7.6,11.3,9,13.2,9h4.7l2-4h14.2l-2,4H50.5z M29.6,9.5L30.9,7h-9.8l-1.6,3.2
			v24.1l5-8.3l5,8.3V10.3v-0.1L29.4,10l0.1-0.2V9.8L29.6,9.5L29.6,9.5z M12.5,58V11c-1.1,0-2.2-0.4-3-1v45C9.5,56.6,10.8,58,12.5,58
			z"/>
	</g>
	<g>
	</g>
</g>
</svg>
