<?xml version="1.0" encoding="utf-8"?>
<!-- Generator: Adobe Illustrator 23.0.1, SVG Export Plug-In . SVG Version: 6.00 Build 0)  -->
<svg version="1.1" id="Layer_1" xmlns="http://www.w3.org/2000/svg" xmlns:xlink="http://www.w3.org/1999/xlink" x="0px" y="0px"
	 viewBox="0 0 512 512" style="enable-background:new 0 0 512 512;" xml:space="preserve">
<style type="text/css">
	.st0{fill:#FFFFFF;}
</style>
<g>
	<g>
		<path d="M172.9,121.1c-31.6-19.7-41-28.7-43.8-32.3c-7.1-9.3-5.3-22.7,4-29.9c3.9-2.9,8.4-4.4,12.9-4.4c6.4,0,12.8,2.9,17,8.4
			c7.8,10.2,19.9,44.4,27.9,69.1C185.5,128.8,179.3,125,172.9,121.1z M218.5,131.9c8-24.7,20.2-58.9,27.9-69.1
			c7.1-9.3,20.5-11.1,29.9-4c9.3,7.1,11.1,20.5,4,29.9c-2.8,3.6-12.2,12.7-43.8,32.3C230.1,125,223.9,128.8,218.5,131.9z
			 M375.2,199.9h60.4c9.7,0,17.6,7.9,17.6,17.6v0.5h-78V199.9z M375.2,286.5v-52.4h71.2l13.1,52.4H375.2z M144.8,457.5
			c-19.2,0-34.7-15.6-34.7-34.7s15.6-34.7,34.7-34.7s34.7,15.6,34.7,34.7S164,457.5,144.8,457.5z M427,457.5
			c-19.2,0-34.7-15.6-34.7-34.7S407.9,388,427,388c19.2,0,34.7,15.6,34.7,34.7S446.2,457.5,427,457.5z M496,354.9h-9.1
			c-5,0-9.1-4.1-9.1-9.1v-9.1H496L496,354.9L496,354.9z"/>
		<g id="XMLID_1_">
			<g>
				<path class="st0" d="M512,327.7c0,31.2,0,62.4,0,93.6c-11.4,0-22.8-0.1-34.2-0.1c0,0.2,0,0.4,0,0.5c0,28-22.8,50.8-50.8,50.8
					c-28,0-50.8-22.8-50.8-50.8c0-0.2,0-0.4,0-0.5H195.6c0,0.2,0,0.4,0,0.5c0,28-22.8,50.8-50.8,50.8c-28,0-50.8-22.8-50.8-50.8
					c0-0.2,0-0.4,0-0.5H50.8c-9.1,0-16.6-7.4-16.6-16.6V387h16v17.6c0,0.3,0.2,0.5,0.5,0.5h46.1c6.9-19.9,25.8-34.2,48-34.2
					c22.2,0,41.1,14.3,48,34.2h166.3v-60.4h16v60.4h3.9c6.9-19.9,25.8-34.2,48-34.2c22.2,0,41.1,14.3,48,34.2h21v-35.3h-9.1
					c-13.9,0-25.1-11.3-25.1-25.1c-0.1-8.1-0.3-24.4-0.3-24.4c1.6-0.1,6.4-0.5,8.3-0.7h24.9c-3.4-10.5-13.3-18.2-24.9-18.2
					c0,0,0,0,0,0c0,0,0,0,0,0h-94.6v9.1h-16V165.2c0-0.3-0.2-0.5-0.5-0.5H50.8c-0.3,0-0.5,0.2-0.5,0.5v145.4h-16V165.2
					c-0.1-5.6-0.4-16.9-0.4-16.9s11.3,0.2,17,0.3h112.3l-68.2-27.3c-4.1-1.6-6.1-6.3-4.5-10.4s6.3-6.1,10.4-4.5l55.9,22.3
					c-17-10.9-33.9-22.9-40.3-31.4c-12.5-16.4-9.3-39.8,7-52.3c16.4-12.5,39.8-9.3,52.3,7c9.1,12,21.1,45.6,28.9,69.3
					c7.8-23.7,19.8-57.3,28.9-69.3c12.5-16.4,36-19.5,52.3-7c16.4,12.5,19.5,36,7,52.3c-6.4,8.4-23.3,20.4-40.3,31.4l55.9-22.3
					c4.1-1.7,8.8,0.3,10.4,4.5c1.6,4.1-0.4,8.8-4.5,10.4l-68.2,27.3h112.3l16.3,0.1l0.2,16.5v17.6h60.4c18.6,0,33.7,15.1,33.7,33.7
					l-6.3,16.4l13.3,53C496.4,289,512,306.6,512,327.7z"/>
			</g>
			<g>
			</g>
		</g>
	</g>
	<g>
		<g id="XMLID_2_">
			<g>
				<path class="st0" d="M427,406.2c9.1,0,16.6,7.4,16.6,16.6c0,9.1-7.4,16.6-16.6,16.6c-9.1,0-16.6-7.4-16.6-16.6
					C410.5,413.6,417.9,406.2,427,406.2z"/>
				<rect x="213.2" y="372" class="st0" width="119.7" height="16"/>
				<path class="st0" d="M315.9,218.1c4.4,0,8,3.6,8,8c0,4.4-3.6,8-8,8h-26.2v18.2h9.1c4.4,0,8,3.6,8,8c0,4.4-3.6,8-8,8h-9.1v18.2
					h26.2c4.4,0,8,3.6,8,8s-3.6,8-8,8h-34.2c-4.4,0-8-3.6-8-8v-68.4c0-4.4,3.6-8,8-8H315.9z"/>
				<path class="st0" d="M256,218.1c4.4,0,8,3.6,8,8c0,4.4-3.6,8-8,8h-26.2v18.2c0.2,0,0.4,0,0.5,0h17.1c4.4,0,8,3.6,8,8
					c0,4.4-3.6,8-8,8h-17.1c-0.2,0-0.4,0-0.5,0v18.2H256c4.4,0,8,3.6,8,8s-3.6,8-8,8h-34.2c-4.4,0-8-3.6-8-8v-68.4c0-4.4,3.6-8,8-8
					H256z"/>
				<path class="st0" d="M202.8,290c2.5,3.7,1.5,8.7-2.2,11.1c-1.4,0.9-2.9,1.3-4.4,1.3c-2.6,0-5.1-1.3-6.7-3.6l-14.7-22.1h-13.4
					v17.6c0,4.4-3.6,8-8,8c-4.4,0-8-3.6-8-8v-68.4c0-4.4,3.6-8,8-8h21.4c16.2,0,29.4,13.2,29.4,29.4c0,10.3-5.3,19.4-13.3,24.6
					L202.8,290z M188.1,247.4c0-7.4-6-13.4-13.4-13.4h-13.4v26.7h13.4C182.1,260.8,188.1,254.8,188.1,247.4z"/>
				<path class="st0" d="M144.8,406.2c9.1,0,16.6,7.4,16.6,16.6c0,9.1-7.4,16.6-16.6,16.6c-9.1,0-16.6-7.4-16.6-16.6
					C128.3,413.6,135.7,406.2,144.8,406.2z"/>
				<path class="st0" d="M127.7,218.1c4.4,0,8,3.6,8,8c0,4.4-3.6,8-8,8h-26.2v18.2h17.6c4.4,0,8,3.6,8,8c0,4.4-3.6,8-8,8h-17.6v26.2
					c0,4.4-3.6,8-8,8s-8-3.6-8-8v-68.4c0-4.4,3.6-8,8-8H127.7z"/>
				<rect x="25.1" y="337.8" class="st0" width="102.6" height="16"/>
			</g>
			<g>
			</g>
		</g>
	</g>
</g>
<path d="M44.9,111.6"/>
</svg>
