<?xml version="1.0" encoding="utf-8"?>
<!-- Generator: Adobe Illustrator 23.0.1, SVG Export Plug-In . SVG Version: 6.00 Build 0)  -->
<svg version="1.1" id="Capa_1" xmlns="http://www.w3.org/2000/svg" xmlns:xlink="http://www.w3.org/1999/xlink" x="0px" y="0px"
	 viewBox="0 0 60 60" style="enable-background:new 0 0 60 60;" xml:space="preserve">
<style type="text/css">
	.st0{fill:#FFFFFF;}
</style>
<g>
	<g id="XMLID_1_">
		<g>
			<path class="st0" d="M55,55l2.3-4h-4.6L55,55z M58,7V3c0-0.5-0.4-1-1-1h-4c-0.6,0-1,0.4-1,1v4H58z M58,11V9h-6v2H58z M58,49V13
				h-6v36H58z M60,13v37.3l-4,7V59c0,0.5-0.5,1-1,1s-1-0.5-1-1v-1.7l-4-7V13V7V3c0-1.6,1.3-3,3-3h4c1.7,0,3,1.3,3,3v4V13z"/>
			<rect x="20" y="18" class="st0" width="14" height="2"/>
			<rect x="20" y="14" class="st0" width="14" height="2"/>
			<path class="st0" d="M15,10h24v14H15V10z M17,22h20V12H17V22z"/>
			<path class="st0" d="M8,58V2H2v56H8z M46,60H10H0V0h10h36V60z M10,58h34V2H10V58z"/>
		</g>
		<g>
		</g>
	</g>
</g>
</svg>
