<?xml version="1.0" encoding="utf-8"?>
<!-- Generator: Adobe Illustrator 23.0.1, SVG Export Plug-In . SVG Version: 6.00 Build 0)  -->
<svg version="1.1" id="Capa_1" xmlns="http://www.w3.org/2000/svg" xmlns:xlink="http://www.w3.org/1999/xlink" x="0px" y="0px"
	 viewBox="0 0 469.3 469.3" style="enable-background:new 0 0 469.3 469.3;" xml:space="preserve">
<style type="text/css">
	.st0{fill:#FFFFFF;}
</style>
<g>
	<g id="XMLID_1_">
		<g>
			<path class="st0" d="M469.3,10.7v64c0,5.9-4.8,10.7-10.7,10.7H384l0,288c0,5.9,4.8,10.7,10.7,10.7h0l21.3,0
				c4.6,0,8.7,2.9,10.1,7.3l21.3,64c1.1,3.2,0.5,6.8-1.5,9.6c-2,2.8-5.2,4.4-8.7,4.4h-64c-41.2,0-74.7-33.5-74.7-74.7V85.3h-128
				c-0.4,63.8-4.2,329.1-45,380c-2,2.5-5.1,4-8.3,4h-64c-4.1,0-7.8-2.3-9.6-6c-1.8-3.7-1.3-8.1,1.3-11.3
				c31.9-39.8,39.8-268.6,40.3-366.7H10.7C4.8,85.3,0,80.6,0,74.7v-64C0,4.8,4.8,0,10.7,0h448C464.6,0,469.3,4.8,469.3,10.7z
				 M448,64V21.3H21.3V64H96c5.9,0,10.7,4.8,10.7,10.7c0,31.5-1.1,290-35.4,373.3h40.5c30.7-51.1,37.6-285,37.6-373.3
				c0-5.9,4.8-10.7,10.7-10.7h149.3c5.9,0,10.7,4.8,10.7,10.7v320c0,29.4,23.9,53.3,53.3,53.3h49.2l-14.2-42.7l-13.6,0c0,0,0,0,0,0
				c-17.6,0-32-14.3-32-32l0-298.7c0-2.8,1.1-5.5,3.1-7.5s4.7-3.1,7.5-3.1H448z"/>
		</g>
		<g>
		</g>
	</g>
</g>
</svg>
