<?xml version="1.0" ?><!DOCTYPE svg  PUBLIC '-//W3C//DTD SVG 1.1//EN'  'http://www.w3.org/Graphics/SVG/1.1/DTD/svg11.dtd'><svg enable-background="new 0 0 841.89 595.28" height="595.28px" id="Layer_1" version="1.1" viewBox="0 0 841.89 595.28" width="841.89px" xml:space="preserve" xmlns="http://www.w3.org/2000/svg" xmlns:xlink="http://www.w3.org/1999/xlink"><path d="M717.645,296.698c0,163.864-132.845,296.707-296.708,296.707c-163.863,0-296.707-132.843-296.707-296.707  C124.229,132.836,257.074,0,420.937,0C584.8,0,717.645,132.836,717.645,296.698z" fill="#476FB0"/><g opacity="0.2"><path d="M711.141,238.189c-0.511-0.071-1.188-0.147-1.96-0.231v-0.528c-0.514-0.07-1.179-0.151-1.96-0.234v-0.527   c-0.514-0.067-1.179-0.147-1.96-0.231v-0.524c-0.505-0.071-1.179-0.146-1.95-0.231v-0.531c-0.515-0.071-1.181-0.147-1.96-0.23   v-0.528c-0.517-0.071-1.181-0.146-1.96-0.235v-0.523c-0.517-0.071-1.181-0.151-1.96-0.235v-0.528   c-0.507-0.07-1.181-0.146-1.951-0.23v-0.523c-0.516-0.071-1.189-0.147-1.962-0.231v-0.532c-0.514-0.071-1.18-0.151-1.96-0.235   v-0.528c-0.514-0.071-1.18-0.151-1.96-0.235v-0.519c-0.506-0.071-1.18-0.146-1.953-0.23v-0.532c-0.512-0.071-1.177-0.15-1.96-0.235   v-0.522c-0.513-0.071-1.179-0.147-1.96-0.235v-0.524c-0.515-0.07-1.179-0.15-1.96-0.234v-0.524   c-0.505-0.067-1.179-0.147-1.951-0.231v-0.527c-0.514-0.071-1.182-0.151-1.96-0.235v-0.528c-0.516-0.071-1.182-0.151-1.96-0.235   v-0.522c-0.516-0.071-1.181-0.151-1.96-0.235v-0.524c-0.507-0.071-1.18-0.145-1.95-0.23v-0.527   c-0.517-0.071-1.189-0.146-1.962-0.23v-0.533c-0.515-0.069-1.18-0.145-1.96-0.233v-0.524c-0.515-0.071-1.18-0.151-1.96-0.235   v-0.523c-0.506-0.071-1.18-0.146-1.954-0.231v-0.528c-0.512-0.071-1.186-0.151-1.96-0.234v-0.527   c-0.512-0.071-1.188-0.147-1.96-0.231v-0.528c-0.514-0.071-1.178-0.146-1.959-0.235v-0.523c-0.506-0.071-1.179-0.147-1.951-0.23   v-0.528c-0.515-0.07-1.189-0.146-1.96-0.234v-0.524c-0.517-0.071-1.189-0.151-1.96-0.235v-0.527   c-0.516-0.071-1.189-0.146-1.96-0.231v-0.528c-0.507-0.071-1.182-0.146-1.951-0.23v-0.527c-0.516-0.071-1.189-0.151-1.962-0.235   v-0.523c-0.514-0.071-1.188-0.151-1.959-0.235v-0.527c-0.515-0.071-1.188-0.146-1.96-0.231v-0.528   c-0.507-0.07-1.18-0.146-1.952-0.23v-0.528c-0.514-0.067-1.188-0.146-1.962-0.231v-0.527c-0.512-0.071-1.188-0.151-1.96-0.235   v-0.528c-0.514-0.071-1.188-0.147-1.96-0.231v-0.527c-0.505-0.066-1.179-0.146-1.95-0.23v-0.528   c-0.515-0.071-1.19-0.151-1.96-0.235v-0.522c-0.515-0.071-1.19-0.147-1.96-0.235v-0.524c-0.517-0.07-1.19-0.151-1.96-0.229v-0.533   c-0.507-0.071-1.182-0.146-1.951-0.231v-0.522c-0.516-0.071-1.189-0.151-1.96-0.235v-0.528c-0.516-0.071-1.189-0.151-1.962-0.235   v-0.527c-0.514-0.071-1.188-0.146-1.96-0.23v-0.528c-0.514-0.071-1.18-0.147-1.96-0.235v-0.522   c-0.506-0.071-1.18-0.147-1.953-0.231v-0.528c-0.513-0.071-1.188-0.146-1.96-0.235v-0.527c-0.513-0.071-1.188-0.146-1.96-0.231   v-0.522c-0.515-0.071-1.179-0.151-1.96-0.235v-0.524c-0.515-0.071-1.179-0.151-1.96-0.235v-0.527   c-0.505-0.071-1.181-0.146-1.951-0.231v-0.533c-0.516-0.071-1.189-0.146-1.96-0.23v-0.523c-0.516-0.071-1.182-0.151-1.96-0.235   v-0.528c-0.516-0.07-1.182-0.151-1.959-0.234v-0.523c-0.517-0.071-1.182-0.147-1.962-0.235v-0.524   c-0.506-0.07-1.179-0.146-1.951-0.229v-0.533c-0.515-0.066-1.18-0.146-1.96-0.23v-0.523c-0.514-0.071-1.18-0.151-1.963-0.235   v-0.528c-0.503-0.071-1.177-0.146-1.951-0.23v-0.527c-0.512-0.071-1.188-0.146-1.96-0.23v-0.528   c-0.514-0.071-1.178-0.151-1.96-0.235v-0.527c-0.505-0.066-1.178-0.146-1.95-0.23v-0.528c-0.515-0.065-1.189-0.146-1.969-0.231   v-0.527c-0.508-0.071-1.181-0.146-1.951-0.231v-0.532c-0.517-0.066-1.182-0.146-1.96-0.229v-0.524   c-0.516-0.071-1.182-0.151-1.96-0.235v-0.527c-0.507-0.071-1.182-0.146-1.952-0.231v-0.528c-0.515-0.071-1.189-0.147-1.96-0.235   v-0.522c-0.515-0.071-1.19-0.147-1.96-0.231v-0.528c-0.516-0.071-1.181-0.146-1.961-0.235v-0.523   c-0.515-0.071-1.18-0.151-1.96-0.235v-0.528c-0.506-0.07-1.181-0.145-1.952-0.229v-0.528c-0.515-0.071-1.188-0.146-1.961-0.23   v-0.527c-0.514-0.071-1.179-0.151-1.96-0.235v-0.528c-0.505-0.071-1.18-0.146-1.95-0.23v-0.527   c-0.516-0.071-1.189-0.146-1.96-0.235v-0.524c-0.516-0.071-1.189-0.145-1.961-0.23v-0.527c-0.515-0.07-1.181-0.146-1.96-0.235   v-0.524c-0.516-0.07-1.181-0.15-1.961-0.234v-0.528c-0.506-0.071-1.18-0.147-1.952-0.23v-0.527c-0.513-0.071-1.188-0.147-1.96-0.23   V174.4c-0.514-0.071-1.18-0.151-1.959-0.235v-0.523c-0.507-0.071-1.181-0.151-1.952-0.235v-0.528   c-0.515-0.066-1.189-0.146-1.97-0.23v-0.527c-0.506-0.071-1.18-0.146-1.95-0.23v-0.528c-0.516-0.07-1.188-0.146-1.961-0.229v-0.528   c-0.515-0.071-1.179-0.151-1.96-0.235v-0.527c-0.505-0.067-1.18-0.147-1.951-0.231v-0.524c-0.515-0.071-1.188-0.151-1.961-0.235   v-0.527c-0.514-0.071-1.18-0.146-1.96-0.231v-0.528c-0.515-0.071-1.181-0.147-1.96-0.235v-0.522   c-0.515-0.071-1.18-0.151-1.961-0.235v-0.528c-0.506-0.071-1.179-0.147-1.951-0.229v-0.528c-0.514-0.071-1.188-0.146-1.959-0.231   v-0.527c-0.516-0.071-1.181-0.151-1.962-0.235v-0.528c-0.505-0.071-1.179-0.146-1.951-0.231v-0.522   c-0.514-0.071-1.188-0.151-1.96-0.235v-0.524c-0.515-0.071-1.188-0.151-1.96-0.235v-0.532c-0.515-0.067-1.188-0.146-1.96-0.23   v-0.528c-0.506-0.067-1.18-0.147-1.951-0.231v-0.523c-0.516-0.071-1.188-0.151-1.961-0.235v-0.523   c-0.514-0.071-1.188-0.151-1.96-0.23v-0.528c-0.514-0.071-1.181-0.151-1.96-0.235v-0.527c-0.515-0.071-1.181-0.151-1.961-0.235   v-0.528c-0.506-0.071-1.18-0.146-1.951-0.23v-0.527c-0.515-0.066-1.189-0.146-1.96-0.23v-0.528   c-0.516-0.071-1.189-0.146-1.961-0.231v-0.527c-4.674-0.63-20.765-2.022-39.516-2.022c-39.106,0-65.868,23.877-65.868,67.713   v37.768h-44.225v51.224h1.959v0.759h1.96v0.758h1.953v0.764h1.96v0.757h1.959v0.759h1.961v0.759h1.951v0.763h1.96v0.754h1.961   v0.763h1.96v0.764h1.96v0.754h1.952v0.763h1.96v0.758h1.96v0.764h1.961v0.753h1.951v0.759h1.96v0.763h1.961v0.758h1.96v0.76h1.951   v0.762h1.961v0.76h1.96v0.758h1.144v114.718h1.96v0.761h1.961v0.757h1.96v0.757h1.951v0.762h1.961v0.761h1.96v0.763h1.959v0.759   h1.953v0.757h1.96v0.76h1.96v0.759h1.951v0.757h1.96v0.759h1.96v0.765h1.961v0.761h1.96v0.757h1.951v0.757h1.961v0.759h1.96v0.763   h1.959v0.758h1.961v0.759h1.96v0.763h1.951v0.757h1.961v0.759h1.951v0.76h1.96v0.757h1.962v0.763h1.96v0.76h1.95v0.756h1.961v0.767   h1.96v0.757h1.96v0.759h1.961v0.759h1.95v0.757h1.96v0.764h1.962v0.759h1.951v0.757h1.96v0.763h1.961v0.759h1.96v0.758h1.951v0.759   h1.96v0.759h1.96v0.762h1.96v0.762h1.962v0.757h1.959v0.759h1.951v0.759h1.962v0.761h1.96v0.759h1.951v0.76h1.959v0.761h1.961   v0.755h1.96v0.763h1.951v0.757h1.961v0.763h1.96v0.761h1.96v0.752h1.952v0.766h1.96v0.761h1.96v0.755h1.961v0.764h1.951v0.757h1.96   v0.759h1.961v0.764h1.96v0.752h1.959v0.764h1.961v0.759h1.951v0.757h1.96v0.761h1.961v0.763h1.96v0.759h1.952v0.759h1.96v0.757   h1.96v0.763h1.96v0.76h1.952v0.757h1.96v0.759h1.96v0.763h1.961v0.757h1.95v0.759h1.96v0.76h1.961v0.761h1.96v0.762h1.952v0.756   h1.961v0.761h1.96v0.763h1.96v0.757h1.95v0.755h1.961v0.763h1.96v0.757h1.961v0.76h1.951v0.763h1.96v0.753h1.96v0.763h1.961v0.765   h1.952v0.752h1.96v0.766h1.96v0.756h1.96v0.76h1.951v0.764h1.96v0.751h1.959v0.765h1.96v0.759h1.953v0.757h1.96v0.764h1.96v0.759   h1.962v0.757h1.96v0.766h1.952v0.752h1.96v0.763h1.959v0.761h1.951v0.756h1.96v0.595   c65.948-54.421,107.982-136.783,107.982-228.955c0-19.811-1.988-39.156-5.685-57.885c-0.293-0.03-0.507-0.061-0.827-0.097V238.189z   " fill="#29235C"/></g><path d="M487.363,309.338l6.607-51.224h-50.727v-32.703c0-14.83,4.143-24.933,25.404-24.933l27.097-0.018v-45.804  c-4.674-0.63-20.765-2.022-39.516-2.022c-39.106,0-65.868,23.877-65.868,67.713v37.768h-44.225v51.224h44.225v131.425h52.882  V309.338H487.363z" fill="#FFFFFF"/></svg>